<?xml version="1.0" encoding="utf-8"?>
<!-- Generator: Adobe Illustrator 24.1.3, SVG Export Plug-In . SVG Version: 6.00 Build 0)  -->
<svg version="1.1" id="Layer_1" xmlns="http://www.w3.org/2000/svg" xmlns:xlink="http://www.w3.org/1999/xlink" x="0px" y="0px"
	 viewBox="0 0 566 510.6" style="enable-background:new 0 0 566 510.6;" xml:space="preserve">
<style type="text/css">
	.st0{fill:#FFFFFF;}
	.st1{clip-path:url(#SVGID_2_);}
	.st2{fill:#AB5550;}
	.st3{fill:#833937;}
	.st4{fill:#362836;}
	.st5{fill:#F5A161;}
	.st6{clip-path:url(#SVGID_4_);fill:none;stroke:#FFFFFF;stroke-miterlimit:10;}
	.st7{opacity:0.2;fill:#362836;}
</style>
<g>
	<g>
		
			<ellipse transform="matrix(0.7071 -0.7071 0.7071 0.7071 -93.9463 255.6812)" class="st0" cx="261.7" cy="241.2" rx="241.2" ry="241.2"/>
	</g>
	<g>
		<defs>
			
				<ellipse id="SVGID_1_" transform="matrix(0.7071 -0.7071 0.7071 0.7071 -93.9463 255.6812)" cx="261.7" cy="241.2" rx="241.2" ry="241.2"/>
		</defs>
		<clipPath id="SVGID_2_">
			<use xlink:href="#SVGID_1_"  style="overflow:visible;"/>
		</clipPath>
		<g class="st1">
			<g>
				<g>
					<path class="st2" d="M282,237.3l-72.7-58.7c0,0,17,84.8,0.8,119.2c29.8,15.7,60,8.8,88.5-7.1c-7.9-20.7-11.1-62.8-11.1-62.8
						L282,237.3z"/>
				</g>
				<g>
					<path class="st3" d="M217.1,232c2.9,19.4,18.1,46.9,39.2,50.8c11.3,2.1,26.5,2.2,39.2-1.7c-5.7-21.9-8.1-53.3-8.1-53.3
						l-5.5,9.4l-72.7-58.7c0,0,4.8,24,6.9,51.6C216.6,230.5,217,231.1,217.1,232z"/>
				</g>
				<path class="st2" d="M291.1,69.5c-40.1-8.1-79.7,11.6-89.9,49.9c0,0-0.1,8.6,0.9,21.3c-10.8-4.1-13.2,3.8-9.5,31.3
					c4.1,30.8,17.3,27.2,20.7,25.4c4.7,13.3,10.9,32.2,19.2,41.9c38.1,44.5,108.6,26.8,108.7-54.7
					C341.3,105.2,320.1,75.4,291.1,69.5z"/>
				<path class="st4" d="M191.3,161.9c0,0,6.6-23.4,16.8-10.2c10.2,13.2-9.8,109.5,41.7,118.5c84.1,14.6,98-13.2,90.7-90
					c0,0-0.7,41.7-11,43.9c-10.2,2.2-5.1-24.1-17.6-27.8c-12.4-3.7-56.4-5.8-55.6,17.6c0.7,21.2-13.2,21.9-19,13.9
					c-6.9-9.5-19.7-88.5-12.4-94.3c7.3-5.9,17.6-11,11-43.1c0,0,32.9,16.8,50.5,14.6c17.6-2.2-5.1-15.4-5.1-15.4s57.8,24.1,66.6-4.4
					c8.8-28.5-48.3-26.3-48.3-26.3s39.5,0,35.1-12.4s-43.1,2.2-43.1,2.2s26.3-20.5,17.6-23.4c-8.8-2.9-30.7,19.7-30.7,19.7
					s10.2-17.6-6.6-17.6c-16.8,0-52.7,28.5-58.5,43.9l17.6-5.9c0,0-27.8-24.8-47.5,8C167.9,99,174.5,132.7,191.3,161.9z"/>
			</g>
			<g>
				<g>
					<path class="st3" d="M207.9,188.4c-0.9-0.7-1.7-1.5-2.5-2.4c-0.7-0.9-1.4-1.9-1.9-3c-0.2-0.6-0.4-1.2-0.3-1.9
						c0-0.7,0.3-1.4,0.7-1.9c0.4-0.5,1-0.9,1.6-1.2c0.6-0.3,1.2-0.4,1.7-0.6l-0.5,0.5c0-4.3-0.1-8.6-0.8-12.9c-0.4-2.1-0.8-4.2-2-6
						c-0.5-0.9-1.4-1.6-2.4-1.7c-1-0.1-2.1,0.3-3,0.9c0.9-0.7,1.9-1.2,3-1.2c1.2,0,2.2,0.8,2.9,1.7c1.3,1.9,1.9,4,2.4,6.2
						c0.5,2.2,0.7,4.3,0.9,6.5c0.1,2.2,0.2,4.4,0.2,6.6l0,0.5l-0.4,0.1c-1,0.2-2.1,0.6-2.7,1.3c-0.6,0.7-0.7,1.7-0.4,2.8
						c0.3,1,0.9,2,1.5,3C206.4,186.6,207.2,187.5,207.9,188.4z"/>
				</g>
				<path class="st4" d="M248.3,162.6c0.9,5.1,3.4,8.9,5.6,8.5c2.2-0.4,3.3-4.8,2.5-9.9s-3.4-8.9-5.6-8.5
					C248.5,153,247.4,157.5,248.3,162.6z"/>
				<path class="st4" d="M309.9,155.8c0.6,5.1,2.8,9.1,5.1,8.9c2.3-0.2,3.6-4.6,3.1-9.8c-0.6-5.1-2.8-9.1-5.1-8.9
					C310.7,146.3,309.4,150.6,309.9,155.8z"/>
				<g>
					<path class="st4" d="M266.4,140.3c-2.9-0.8-5.6-1.5-8.4-1.9c-2.8-0.4-5.5-0.5-8.1-0.2c-1.3,0.2-2.6,0.4-3.9,0.8
						c-1.3,0.4-2.5,0.9-3.7,1.6c-2.4,1.3-4.6,3-6.9,5c1.1-2.8,3-5.3,5.4-7.2c1.2-1,2.6-1.7,4.1-2.4c1.5-0.6,3-1,4.6-1.2
						c3.1-0.4,6.3,0,9.2,1C261.5,136.8,264.2,138.2,266.4,140.3z"/>
				</g>
				<g>
					<path class="st4" d="M332,134.9c-2.8-1-5.5-1.9-8.3-2.4c-2.7-0.6-5.4-0.9-8.1-0.7c-1.3,0.1-2.6,0.3-3.9,0.6
						c-1.3,0.3-2.6,0.8-3.8,1.3c-2.5,1.1-4.8,2.7-7.2,4.6c1.3-2.7,3.3-5.1,5.9-6.9c1.3-0.9,2.7-1.6,4.2-2.1c1.5-0.5,3.1-0.8,4.6-0.9
						c3.2-0.2,6.3,0.4,9.1,1.5C327.3,131,330,132.7,332,134.9z"/>
				</g>
				<g>
					<path class="st3" d="M291.5,139.2c1.8,4.2,3.4,8.5,4.8,12.8c1.5,4.3,2.8,8.7,4,13.1c1.2,4.4,2.3,8.8,3.3,13.3l0.7,3.3l0.6,3.4
						c0.4,2.2,0.7,4.5,1.1,6.8l0.1,0.7l-0.7,0.1c-2.8,0.3-5.6,0.6-8.4,0.9c-2.8,0.2-5.6,0.5-8.5,0.7c2.8-0.5,5.6-1,8.4-1.5
						c2.8-0.5,5.6-0.9,8.4-1.3l-0.6,0.7c-0.9-4.4-1.7-8.9-2.8-13.3c-1-4.4-2-8.8-3.2-13.2c-1.1-4.4-2.3-8.8-3.5-13.1
						C294,148,292.8,143.6,291.5,139.2z"/>
				</g>
				<path class="st0" d="M265.2,215.3l47.5-5.9C312.7,209.5,301,229.9,265.2,215.3z"/>
			</g>
		</g>
		<g class="st1">
			<g>
				<path class="st2" d="M429.4,357c0,0,123.6-8.8,129.4-30c7.9-28.6-27.1-241.3-32.2-243.5c-9.1-3.9-5.1,27.8-5.1,27.8
					s-4-41.3-11.7-40.2c-7.7,1.1-2.9,43.1-2.9,43.1s-6.9-35.1-10.2-35.1c-3.3,0-2.2,38.8-2.2,38.8s-3.3-25.6-11-25.6
					c-7.7,0,2.2,179.2,2.2,179.2l-69.5,8.8l8.8,77.9"/>
				<path class="st3" d="M447.3,276.2l-31.1,3.9l8.8,77.9l4.4-1.1c0,0,7.9-0.6,19.8-1.7C455.5,329.8,451.3,302.3,447.3,276.2z"/>
			</g>
			<g>
				<path class="st2" d="M83.7,373.5c0,0-7.6,70.4-7.6,94.1l75.4,4.4l0.1-66.3L83.7,373.5z"/>
				<path class="st3" d="M136.2,410.8c5.1,2,10.2,3.9,15.3,5.6l0-10.7l-67.8-32.2c0,0-0.6,5.1-1.4,13
					C100.7,393.7,117.9,403.5,136.2,410.8z"/>
			</g>
			<g>
				<path class="st5" d="M211.4,291.7c0,0,40.4,22,87.1-1.1c0,0,27.9-11.4,57.7-15.4c21.6-2.9,63.3-1,86.4-4.2
					c0,0,2.8,74.6-2.7,96.5l-30.8,5.1c0,0,2.9,68.5,0.8,95.9c-2.2,27.4-198.8,47.3-259.1,28.7l-5.9-91.6l-69-30.6
					c0,0,9.6-44.9,44.4-67.8C146.4,290.1,211.4,291.7,211.4,291.7z"/>
				<g>
					<defs>
						<path id="SVGID_3_" d="M211.4,291.7c0,0,40.4,22,87.1-1.1c0,0,27.9-11.4,57.7-15.4c21.6-2.9,63.3-1,86.4-4.2
							c0,0,2.8,74.6-2.7,96.5l-30.8,5.1c0,0,2.9,68.5,0.8,95.9c-2.2,27.4-198.8,47.3-259.1,28.7l-5.9-91.6l-69-30.6
							c0,0,9.6-44.9,44.4-67.8C146.4,290.1,211.4,291.7,211.4,291.7z"/>
					</defs>
					<clipPath id="SVGID_4_">
						<use xlink:href="#SVGID_3_"  style="overflow:visible;"/>
					</clipPath>
					<line class="st6" x1="-5.9" y1="337.7" x2="473.3" y2="280.8"/>
					<line class="st6" x1="-5.9" y1="372.2" x2="473.3" y2="315.3"/>
					<line class="st6" x1="-5.9" y1="406.6" x2="473.3" y2="349.8"/>
					<line class="st6" x1="-5.9" y1="441.1" x2="473.3" y2="384.2"/>
					<line class="st6" x1="-5.9" y1="475.6" x2="473.3" y2="418.7"/>
					<line class="st6" x1="-5.9" y1="510.1" x2="473.3" y2="453.2"/>
				</g>
				<path class="st7" d="M346.6,453.6c-68.5-8.4-139.3-13.2-201.6-44.8l5.7,88.5c60.3,18.6,256.9-1.2,259.1-28.7
					c0.2-2.5,0.4-5.3,0.5-8.4C389,458.8,367.7,456.2,346.6,453.6z"/>
			</g>
		</g>
	</g>
	<g>
		<g>
			<path class="st2" d="M485.7,161.7c0,0-1.2-1.5-2.9-3.8c-9.4-12.5-36.3-49.1,0-15.9c43.1,39.5,5.9,21.2,5.9,21.2"/>
			<path class="st2" d="M526.7,83.4c-7.5-3.2-6.1,17.8-5.4,25.2c-1-9-4.9-38.6-11.4-37.7c-7.7,1.1-2.9,43.1-2.9,43.1
				s-6.9-35.1-10.2-35.1c-3.3,0-2.2,38.8-2.2,38.8s-3.3-25.6-11-25.6c-7.7,0,2.2,179.2,2.2,179.2l-43,5.4c0.4,15,1.3,55.5-1.1,79.1
				c31.4-2.9,112.5-11.9,117.2-29C566.7,298.3,531.8,85.6,526.7,83.4z"/>
			<path class="st3" d="M447.3,276.2l-4.6,0.6c0.4,15,1.3,55.5-1.1,79.1c2.3-0.2,4.8-0.4,7.5-0.7
				C455.5,329.8,451.3,302.3,447.3,276.2z"/>
		</g>
	</g>
</g>
</svg>
