<?xml version="1.0" encoding="utf-8"?>
<!-- Generator: Adobe Illustrator 24.1.3, SVG Export Plug-In . SVG Version: 6.00 Build 0)  -->
<svg version="1.1" id="Layer_1" xmlns="http://www.w3.org/2000/svg" xmlns:xlink="http://www.w3.org/1999/xlink" x="0px" y="0px"
	 viewBox="0 0 566.9 566.9" style="enable-background:new 0 0 566.9 566.9;" xml:space="preserve">
<style type="text/css">
	.st0{opacity:0.2;fill:#5A97C0;}
	.st1{clip-path:url(#SVGID_2_);}
	.st2{fill:#AB5550;}
	.st3{fill:#833937;}
	.st4{fill:#362836;}
	.st5{fill:#FFFFFF;}
	.st6{fill:#F5A161;}
	.st7{clip-path:url(#SVGID_4_);fill:none;stroke:#FFFFFF;stroke-miterlimit:10;}
	.st8{opacity:0.2;fill:#362836;}
</style>
<g>
	<g>
		
			<ellipse transform="matrix(0.7071 -0.7071 0.7071 0.7071 -123.1306 266.1364)" class="st0" cx="259.7" cy="281.7" rx="241.2" ry="241.2"/>
	</g>
	<g>
		<defs>
			
				<ellipse id="SVGID_1_" transform="matrix(0.7071 -0.7071 0.7071 0.7071 -123.1306 266.1364)" cx="259.7" cy="281.7" rx="241.2" ry="241.2"/>
		</defs>
		<clipPath id="SVGID_2_">
			<use xlink:href="#SVGID_1_"  style="overflow:visible;"/>
		</clipPath>
		<g class="st1">
			<g>
				<g>
					<path class="st2" d="M280,277.7L207.3,219c0,0,17,84.8,0.8,119.2c29.8,15.7,60,8.8,88.5-7.1c-7.9-20.7-11.1-62.8-11.1-62.8
						L280,277.7z"/>
				</g>
				<g>
					<path class="st3" d="M215.2,272.4c2.9,19.4,18.1,46.9,39.2,50.8c11.3,2.1,26.5,2.2,39.2-1.7c-5.7-21.9-8.1-53.3-8.1-53.3
						l-5.5,9.4L207.3,219c0,0,4.8,24,6.9,51.6C214.7,271,215,271.6,215.2,272.4z"/>
				</g>
				<path class="st2" d="M289.1,110c-40.1-8.1-79.7,11.6-89.9,49.9c0,0-0.1,8.6,0.9,21.3c-10.8-4.1-13.2,3.8-9.5,31.3
					c4.1,30.8,17.3,27.2,20.7,25.4c4.7,13.3,10.9,32.2,19.2,41.9c38.1,44.5,108.6,26.8,108.7-54.7
					C339.3,145.6,318.1,115.8,289.1,110z"/>
				<path class="st4" d="M189.3,202.4c0,0,6.6-23.4,16.8-10.2c10.2,13.2-9.8,109.5,41.7,118.5c84.1,14.6,98-13.2,90.7-90
					c0,0-0.7,41.7-11,43.9s-5.1-24.1-17.6-27.8c-12.4-3.7-56.4-5.8-55.6,17.6c0.7,21.2-13.2,21.9-19,13.9
					c-6.9-9.5-19.7-88.5-12.4-94.3c7.3-5.9,17.6-11,11-43.1c0,0,32.9,16.8,50.5,14.6c17.6-2.2-5.1-15.4-5.1-15.4s57.8,24.1,66.6-4.4
					c8.8-28.5-48.3-26.3-48.3-26.3s39.5,0,35.1-12.4S289.5,89,289.5,89s26.3-20.5,17.6-23.4c-8.8-2.9-30.7,19.7-30.7,19.7
					s10.2-17.6-6.6-17.6c-16.8,0-52.7,28.5-58.5,43.9l17.6-5.9c0,0-27.8-24.8-47.5,8C165.9,139.5,172.5,173.1,189.3,202.4z"/>
			</g>
			<g>
				<g>
					<path class="st3" d="M205.9,228.8c-0.9-0.7-1.7-1.5-2.5-2.4c-0.7-0.9-1.4-1.9-1.9-3c-0.2-0.6-0.4-1.2-0.3-1.9
						c0-0.7,0.3-1.4,0.7-1.9c0.4-0.5,1-0.9,1.6-1.2c0.6-0.3,1.2-0.4,1.7-0.6l-0.5,0.5c0-4.3-0.1-8.6-0.8-12.9c-0.4-2.1-0.8-4.2-2-6
						c-0.5-0.9-1.4-1.6-2.4-1.7c-1-0.1-2.1,0.3-3,0.9c0.9-0.7,1.9-1.2,3-1.2c1.2,0,2.2,0.8,2.9,1.7c1.3,1.9,1.9,4,2.4,6.2
						c0.5,2.2,0.7,4.3,0.9,6.5c0.1,2.2,0.2,4.4,0.2,6.6l0,0.5l-0.4,0.1c-1,0.2-2.1,0.6-2.7,1.3c-0.6,0.7-0.7,1.7-0.4,2.8
						c0.3,1,0.9,2,1.5,3C204.5,227,205.2,227.9,205.9,228.8z"/>
				</g>
				<path class="st4" d="M246.3,203c0.9,5.1,3.4,8.9,5.6,8.5c2.2-0.4,3.3-4.8,2.5-9.9s-3.4-8.9-5.6-8.5
					C246.5,193.5,245.4,197.9,246.3,203z"/>
				<path class="st4" d="M307.9,196.2c0.6,5.1,2.8,9.1,5.1,8.9c2.3-0.2,3.6-4.6,3.1-9.8c-0.6-5.1-2.8-9.1-5.1-8.9
					C308.8,186.7,307.4,191.1,307.9,196.2z"/>
				<g>
					<path class="st4" d="M264.4,180.8c-2.9-0.8-5.6-1.5-8.4-1.9c-2.8-0.4-5.5-0.5-8.1-0.2c-1.3,0.2-2.6,0.4-3.9,0.8
						c-1.3,0.4-2.5,0.9-3.7,1.6c-2.4,1.3-4.6,3-6.9,5c1.1-2.8,3-5.3,5.4-7.2c1.2-1,2.6-1.7,4.1-2.4c1.5-0.6,3-1,4.6-1.2
						c3.1-0.4,6.3,0,9.2,1C259.5,177.2,262.3,178.7,264.4,180.8z"/>
				</g>
				<g>
					<path class="st4" d="M330,175.3c-2.8-1-5.5-1.9-8.3-2.4c-2.7-0.6-5.4-0.9-8.1-0.7c-1.3,0.1-2.6,0.3-3.9,0.6
						c-1.3,0.3-2.6,0.8-3.8,1.3c-2.5,1.1-4.8,2.7-7.2,4.6c1.3-2.7,3.3-5.1,5.9-6.9c1.3-0.9,2.7-1.6,4.2-2.1c1.5-0.5,3.1-0.8,4.6-0.9
						c3.2-0.2,6.3,0.4,9.1,1.5C325.4,171.5,328,173.1,330,175.3z"/>
				</g>
				<g>
					<path class="st3" d="M289.5,179.7c1.8,4.2,3.4,8.5,4.8,12.8c1.5,4.3,2.8,8.7,4,13.1c1.2,4.4,2.3,8.8,3.3,13.3l0.7,3.3l0.6,3.4
						c0.4,2.2,0.7,4.5,1.1,6.8l0.1,0.7l-0.7,0.1c-2.8,0.3-5.6,0.6-8.4,0.9c-2.8,0.2-5.6,0.5-8.5,0.7c2.8-0.5,5.6-1,8.4-1.5
						c2.8-0.5,5.6-0.9,8.4-1.3l-0.6,0.7c-0.9-4.4-1.7-8.9-2.8-13.3c-1-4.4-2-8.8-3.2-13.2c-1.1-4.4-2.3-8.8-3.5-13.1
						C292.1,188.4,290.8,184.1,289.5,179.7z"/>
				</g>
				<path class="st5" d="M263.2,255.8l47.5-5.9C310.7,249.9,299,270.4,263.2,255.8z"/>
			</g>
		</g>
		<g class="st1">
			<g>
				<path class="st2" d="M427.4,397.4c0,0,123.6-8.8,129.4-30c7.9-28.6-27.1-241.3-32.2-243.5c-9.1-3.9-5.1,27.8-5.1,27.8
					s-4-41.3-11.7-40.2c-7.7,1.1-2.9,43.1-2.9,43.1s-6.9-35.1-10.2-35.1c-3.3,0-2.2,38.8-2.2,38.8s-3.3-25.6-11-25.6
					c-7.7,0,2.2,179.2,2.2,179.2l-69.5,8.8l8.8,77.9"/>
				<path class="st3" d="M445.4,316.7l-31.1,3.9l8.8,77.9l4.4-1.1c0,0,7.9-0.6,19.8-1.7C453.6,370.3,449.3,342.7,445.4,316.7z"/>
			</g>
			<g>
				<path class="st2" d="M81.8,413.9c0,0-7.6,70.4-7.6,94.1l75.4,4.4l0.1-66.3L81.8,413.9z"/>
				<path class="st3" d="M134.2,451.2c5.1,2,10.2,3.9,15.3,5.6l0-10.7l-67.8-32.2c0,0-0.6,5.1-1.4,13
					C98.7,434.1,115.9,444,134.2,451.2z"/>
			</g>
			<g>
				<path class="st6" d="M209.4,332.2c0,0,40.4,22,87.1-1.1c0,0,27.9-11.4,57.7-15.4c21.6-2.9,63.3-1,86.4-4.2
					c0,0,2.8,74.6-2.7,96.5l-30.8,5.1c0,0,2.9,68.5,0.8,95.9c-2.2,27.4-198.8,47.3-259.1,28.7l-5.9-91.6l-69-30.6
					c0,0,9.6-44.9,44.4-67.8C144.5,330.5,209.4,332.2,209.4,332.2z"/>
				<g>
					<defs>
						<path id="SVGID_3_" d="M209.4,332.2c0,0,40.4,22,87.1-1.1c0,0,27.9-11.4,57.7-15.4c21.6-2.9,63.3-1,86.4-4.2
							c0,0,2.8,74.6-2.7,96.5l-30.8,5.1c0,0,2.9,68.5,0.8,95.9c-2.2,27.4-198.8,47.3-259.1,28.7l-5.9-91.6l-69-30.6
							c0,0,9.6-44.9,44.4-67.8C144.5,330.5,209.4,332.2,209.4,332.2z"/>
					</defs>
					<clipPath id="SVGID_4_">
						<use xlink:href="#SVGID_3_"  style="overflow:visible;"/>
					</clipPath>
					<line class="st7" x1="-7.9" y1="378.1" x2="471.3" y2="321.3"/>
					<line class="st7" x1="-7.9" y1="412.6" x2="471.3" y2="355.7"/>
					<line class="st7" x1="-7.9" y1="447.1" x2="471.3" y2="390.2"/>
					<line class="st7" x1="-7.9" y1="481.6" x2="471.3" y2="424.7"/>
					<line class="st7" x1="-7.9" y1="516.1" x2="471.3" y2="459.2"/>
					<line class="st7" x1="-7.9" y1="550.5" x2="471.3" y2="493.6"/>
				</g>
				<path class="st8" d="M344.6,494c-68.5-8.4-139.3-13.2-201.6-44.8l5.7,88.5c60.3,18.6,256.9-1.2,259.1-28.7
					c0.2-2.5,0.4-5.3,0.5-8.4C387.1,499.3,365.7,496.6,344.6,494z"/>
			</g>
		</g>
	</g>
	<g>
		<g>
			<path class="st2" d="M483.7,202.1c0,0-1.2-1.5-2.9-3.8c-9.4-12.5-36.3-49.1,0-15.9c43.1,39.5,5.9,21.2,5.9,21.2"/>
			<path class="st2" d="M524.7,123.9c-7.5-3.2-6.1,17.8-5.4,25.2c-1-9-4.9-38.6-11.4-37.7c-7.7,1.1-2.9,43.1-2.9,43.1
				s-6.9-35.1-10.2-35.1c-3.3,0-2.2,38.8-2.2,38.8s-3.3-25.6-11-25.6c-7.7,0,2.2,179.2,2.2,179.2l-43,5.4c0.4,15,1.3,55.5-1.1,79.1
				c31.4-2.9,112.5-11.9,117.2-29C564.8,338.8,529.8,126.1,524.7,123.9z"/>
			<path class="st3" d="M445.4,316.7l-4.6,0.6c0.4,15,1.3,55.5-1.1,79.1c2.3-0.2,4.8-0.4,7.5-0.7
				C453.6,370.3,449.3,342.7,445.4,316.7z"/>
		</g>
	</g>
</g>
</svg>
